<svg width="44" height="44" viewBox="0 0 44 44" fill="none" xmlns="http://www.w3.org/2000/svg">
<path fill-rule="evenodd" clip-rule="evenodd" d="M39.7501 35C35.7465 40.4572 29.287 44 22 44C14.713 44 8.25346 40.4572 4.24992 35H39.7501ZM43.4293 27H0.570669C0.19736 25.3937 0 23.7199 0 22C0 20.2801 0.19736 18.6063 0.570669 17H43.4293C43.8026 18.6063 44 20.2801 44 22C44 23.7199 43.8026 25.3937 43.4293 27ZM22 0C14.713 0 8.25346 3.54284 4.24992 9H39.7501C35.7465 3.54284 29.287 0 22 0Z" fill="#FEFDFD"/>
</svg>
