<svg width="44" height="44" viewBox="0 0 44 44" fill="none" xmlns="http://www.w3.org/2000/svg">
<path fill-rule="evenodd" clip-rule="evenodd" d="M40.1269 34.4702C42.5697 30.926 44 26.6301 44 22C44 17.3701 42.5698 13.0742 40.1271 9.53005L27.6569 22.0002L40.1269 34.4702ZM22 16.3434L34.4702 3.87315C30.9261 1.4303 26.6301 0 22 0C17.3699 0 13.074 1.43029 9.52976 3.87315L22 16.3434ZM3.87295 9.53004L16.3432 22.0002L3.87315 34.4702C1.4303 30.9261 0 26.6301 0 22C0 17.3701 1.43022 13.0742 3.87295 9.53004ZM22 27.6571L34.47 40.127C30.9258 42.5698 26.6299 44 22 44C17.3701 44 13.0742 42.5698 9.53005 40.1271L22 27.6571Z" fill="#586A53"/>
</svg>
