<svg width="44" height="44" viewBox="0 0 44 44" fill="none" xmlns="http://www.w3.org/2000/svg">
<circle cx="22" cy="22" r="22" fill="#586A53"/>
<path d="M22.0027 15.8467C18.5974 15.8467 15.8508 18.594 15.8508 22C15.8508 25.406 18.5974 28.1533 22.0027 28.1533C25.4079 28.1533 28.1546 25.406 28.1546 22C28.1546 18.594 25.4079 15.8467 22.0027 15.8467ZM22.0027 26.0004C19.8021 26.0004 18.0031 24.2064 18.0031 22C18.0031 19.7936 19.7968 17.9996 22.0027 17.9996C24.2086 17.9996 26.0022 19.7936 26.0022 22C26.0022 24.2064 24.2032 26.0004 22.0027 26.0004ZM29.8412 15.595C29.8412 16.3929 29.1987 17.0302 28.4062 17.0302C27.6085 17.0302 26.9713 16.3876 26.9713 15.595C26.9713 14.8024 27.6138 14.1598 28.4062 14.1598C29.1987 14.1598 29.8412 14.8024 29.8412 15.595ZM33.9157 17.0517C33.8247 15.1291 33.3856 13.4261 31.9775 12.023C30.5747 10.6199 28.8721 10.1807 26.9499 10.0843C24.9689 9.97188 19.0311 9.97188 17.0501 10.0843C15.1333 10.1754 13.4307 10.6145 12.0225 12.0176C10.6144 13.4207 10.1807 15.1237 10.0843 17.0463C9.97189 19.0278 9.97189 24.9669 10.0843 26.9483C10.1753 28.8709 10.6144 30.5739 12.0225 31.977C13.4307 33.3801 15.1279 33.8193 17.0501 33.9157C19.0311 34.0281 24.9689 34.0281 26.9499 33.9157C28.8721 33.8246 30.5747 33.3855 31.9775 31.977C33.3803 30.5739 33.8193 28.8709 33.9157 26.9483C34.0281 24.9669 34.0281 19.0331 33.9157 17.0517ZM31.3564 29.0744C30.9388 30.1241 30.1303 30.9327 29.0755 31.3558C27.496 31.9824 23.7481 31.8378 22.0027 31.8378C20.2572 31.8378 16.504 31.977 14.9298 31.3558C13.8804 30.9381 13.0719 30.1294 12.649 29.0744C12.0225 27.4946 12.1671 23.7458 12.1671 22C12.1671 20.2542 12.0279 16.5001 12.649 14.9256C13.0666 13.8759 13.8751 13.0673 14.9298 12.6442C16.5093 12.0176 20.2572 12.1622 22.0027 12.1622C23.7481 12.1622 27.5014 12.023 29.0755 12.6442C30.1249 13.0619 30.9334 13.8706 31.3564 14.9256C31.9828 16.5054 31.8383 20.2542 31.8383 22C31.8383 23.7458 31.9828 27.4999 31.3564 29.0744Z" fill="#F6E8EA"/>
</svg>
