<svg width="44" height="44" viewBox="0 0 44 44" fill="none" xmlns="http://www.w3.org/2000/svg">
<circle cx="22" cy="22" r="22" fill="#586A53"/>
<path d="M31 20.02C29.1322 20.0241 27.3104 19.4333 25.792 18.3312V26.0148C25.7915 27.4378 25.3623 28.8268 24.5617 29.9959C23.7611 31.1651 22.6272 32.0587 21.3118 32.5572C19.9964 33.0557 18.5621 33.1354 17.2008 32.7856C15.8395 32.4358 14.616 31.6731 13.694 30.5997C12.7721 29.5262 12.1956 28.1931 12.0416 26.7787C11.8876 25.3642 12.1635 23.9358 12.8324 22.6846C13.5013 21.4333 14.5313 20.4188 15.7847 19.7768C17.038 19.1348 18.455 18.8958 19.846 19.0918V22.9551C19.2099 22.7522 18.5269 22.7581 17.8944 22.972C17.2618 23.1859 16.7122 23.5969 16.3239 24.1462C15.9356 24.6954 15.7285 25.355 15.7322 26.0307C15.7359 26.7063 15.9502 27.3635 16.3444 27.9084C16.7387 28.4533 17.2928 28.8581 17.9276 29.0649C18.5624 29.2717 19.2455 29.2699 19.8793 29.06C20.5131 28.85 21.0652 28.4424 21.4568 27.8956C21.8484 27.3487 22.0594 26.6904 22.0598 26.0148V11H25.792C25.7899 11.3198 25.8168 11.6392 25.8725 11.954C26.0023 12.6557 26.272 13.3233 26.665 13.9159C27.0581 14.5085 27.5662 15.0136 28.1585 15.4004C29.0015 15.9646 29.9897 16.265 31 16.2642V20.02Z" fill="#F6E8EA"/>
</svg>
