<svg width="44" height="85" viewBox="0 0 44 85" fill="none" xmlns="http://www.w3.org/2000/svg">
<path fill-rule="evenodd" clip-rule="evenodd" d="M0 63V22V20H0.089686C1.10014 8.787 10.5239 0 22 0C33.4761 0 42.8999 8.787 43.9103 20H44V22V63C44 75.1503 34.1503 85 22 85C9.84974 85 0 75.1503 0 63ZM27.7613 21.7317C27.7613 24.8674 25.2193 27.4094 22.0837 27.4094C18.948 27.4094 16.406 24.8674 16.406 21.7317C16.406 18.596 18.948 16.054 22.0837 16.054C25.2193 16.054 27.7613 18.596 27.7613 21.7317ZM29.7422 36.9998V37H14.2577V36.9998C14.2577 32.7238 17.724 29.2575 22 29.2575C26.2759 29.2575 29.7422 32.7238 29.7422 36.9998ZM17.5504 57H19H24H25.9989C25.6852 55.0421 23.9415 53.5 21.7746 53.5C19.6078 53.5 17.8641 55.0421 17.5504 57ZM29.0211 57C28.6932 53.3286 25.543 50.5 21.7746 50.5C18.0063 50.5 14.8561 53.3286 14.5282 57H12V67C12 69.2091 13.7909 71 16 71H28C30.2091 71 32 69.2091 32 67V57H29.0211Z" fill="#586A53"/>
</svg>
