<svg width="44" height="44" viewBox="0 0 44 44" fill="none" xmlns="http://www.w3.org/2000/svg">
<mask id="path-1-inside-1_23_963" fill="white">
<path fill-rule="evenodd" clip-rule="evenodd" d="M39.7501 35C35.7465 40.4572 29.287 44 22 44C14.713 44 8.25346 40.4572 4.24992 35H39.7501ZM43.4293 27H0.570669C0.19736 25.3937 0 23.7199 0 22C0 20.2801 0.19736 18.6063 0.570669 17H43.4293C43.8026 18.6063 44 20.2801 44 22C44 23.7199 43.8026 25.3937 43.4293 27ZM22 0C14.713 0 8.25346 3.54284 4.24992 9H39.7501C35.7465 3.54284 29.287 0 22 0Z"/>
</mask>
<path d="M39.7501 35L42.169 36.7746L45.6717 32H39.7501V35ZM4.24992 35V32H-1.67172L1.83105 36.7746L4.24992 35ZM0.570669 27L-2.35146 27.6791L-1.81207 30H0.570669V27ZM43.4293 27V30H45.8121L46.3515 27.6791L43.4293 27ZM0.570669 17V14H-1.81207L-2.35146 16.3209L0.570669 17ZM43.4293 17L46.3515 16.3209L45.8121 14H43.4293V17ZM4.24992 9L1.83105 7.22544L-1.67172 12H4.24992V9ZM39.7501 9V12H45.6717L42.169 7.22544L39.7501 9ZM22 47C30.2828 47 37.6246 42.9689 42.169 36.7746L37.3312 33.2254C33.8685 37.9454 28.2912 41 22 41V47ZM1.83105 36.7746C6.37542 42.9689 13.7172 47 22 47V41C15.7088 41 10.1315 37.9454 6.66879 33.2254L1.83105 36.7746ZM39.7501 32H4.24992V38H39.7501V32ZM0.570669 30H43.4293V24H0.570669V30ZM-3 22C-3 23.9501 -2.77614 25.8517 -2.35146 27.6791L3.49279 26.3209C3.17086 24.9357 3 23.4897 3 22H-3ZM-2.35146 16.3209C-2.77614 18.1483 -3 20.0499 -3 22H3C3 20.5103 3.17086 19.0643 3.49279 17.6791L-2.35146 16.3209ZM43.4293 14H0.570669V20H43.4293V14ZM47 22C47 20.0499 46.7761 18.1483 46.3515 16.3209L40.5072 17.6791C40.8291 19.0643 41 20.5103 41 22H47ZM46.3515 27.6791C46.7761 25.8517 47 23.9501 47 22H41C41 23.4897 40.8291 24.9357 40.5072 26.3209L46.3515 27.6791ZM6.66879 10.7746C10.1315 6.05459 15.7088 3 22 3V-3C13.7172 -3 6.37542 1.03109 1.83105 7.22544L6.66879 10.7746ZM39.7501 6H4.24992V12H39.7501V6ZM22 3C28.2912 3 33.8685 6.05459 37.3312 10.7746L42.169 7.22544C37.6246 1.03109 30.2828 -3 22 -3V3Z" fill="#FEFDFD" mask="url(#path-1-inside-1_23_963)"/>
</svg>
