<svg width="44" height="85" viewBox="0 0 44 85" fill="none" xmlns="http://www.w3.org/2000/svg">
<mask id="path-1-inside-1_23_872" fill="white">
<path fill-rule="evenodd" clip-rule="evenodd" d="M0 63V22V20H0.089686C1.10014 8.787 10.5239 0 22 0C33.4761 0 42.8999 8.787 43.9103 20H44V22V63C44 75.1503 34.1503 85 22 85C9.84974 85 0 75.1503 0 63Z"/>
</mask>
<path d="M0 20V17H-3V20H0ZM0.089686 20V23H2.8315L3.07758 20.2693L0.089686 20ZM43.9103 20L40.9224 20.2693L41.1685 23H43.9103V20ZM44 20H47V17H44V20ZM3 63V22H-3V63H3ZM3 22V20H-3V22H3ZM0 23H0.089686V17H0V23ZM22 -3C8.95735 -3 -1.74967 6.98552 -2.89821 19.7307L3.07758 20.2693C3.94996 10.5885 12.0905 3 22 3V-3ZM46.8982 19.7307C45.7497 6.98552 35.0426 -3 22 -3V3C31.9095 3 40.05 10.5885 40.9224 20.2693L46.8982 19.7307ZM43.9103 23H44V17H43.9103V23ZM41 20V22H47V20H41ZM41 22V63H47V22H41ZM22 88C35.8071 88 47 76.8071 47 63H41C41 73.4934 32.4934 82 22 82V88ZM-3 63C-3 76.8071 8.19288 88 22 88V82C11.5066 82 3 73.4934 3 63H-3Z" fill="#FEFDFD" mask="url(#path-1-inside-1_23_872)"/>
<circle cx="22.0837" cy="21.7317" r="5.67766" fill="#FEFDFD"/>
<path fill-rule="evenodd" clip-rule="evenodd" d="M29.7422 37C29.7422 37 29.7422 36.9999 29.7422 36.9998C29.7422 32.7239 26.2759 29.2576 22 29.2576C17.724 29.2576 14.2577 32.7239 14.2577 36.9998C14.2577 36.9999 14.2577 37 14.2577 37H29.7422Z" fill="#FEFDFD"/>
<path d="M27.5493 57.6338C27.5493 54.5223 24.9639 52 21.7746 52C18.5854 52 16 54.5223 16 57.6338" stroke="#FEFDFD" stroke-width="3"/>
<rect x="16" y="57" width="12" height="14" fill="#FEFDFD"/>
<rect x="12" y="57" width="12" height="10" fill="#FEFDFD"/>
<rect x="19" y="57" width="13" height="10" fill="#FEFDFD"/>
<circle cx="28" cy="67" r="4" fill="#FEFDFD"/>
<circle cx="16" cy="67" r="4" fill="#FEFDFD"/>
</svg>
