<svg width="44" height="45" viewBox="0 0 44 45" fill="none" xmlns="http://www.w3.org/2000/svg">
<circle cx="22" cy="22.8037" r="22" fill="#F6E8EA"/>
<path d="M31 20.8237C29.1322 20.8278 27.3104 20.237 25.792 19.1349V26.8185C25.7915 28.2415 25.3623 29.6305 24.5617 30.7996C23.7611 31.9688 22.6272 32.8624 21.3118 33.3609C19.9964 33.8594 18.5621 33.9391 17.2008 33.5893C15.8395 33.2395 14.616 32.4769 13.694 31.4034C12.7721 30.3299 12.1956 28.9968 12.0416 27.5824C11.8876 26.1679 12.1635 24.7396 12.8324 23.4883C13.5013 22.237 14.5313 21.2225 15.7847 20.5805C17.038 19.9385 18.455 19.6995 19.846 19.8955V23.7588C19.2099 23.5559 18.5269 23.5618 17.8944 23.7758C17.2618 23.9897 16.7122 24.4006 16.3239 24.9499C15.9356 25.4992 15.7285 26.1587 15.7322 26.8344C15.7359 27.51 15.9502 28.1672 16.3444 28.7121C16.7387 29.257 17.2928 29.6618 17.9276 29.8686C18.5624 30.0754 19.2455 30.0737 19.8793 29.8637C20.5131 29.6537 21.0652 29.2461 21.4568 28.6993C21.8484 28.1524 22.0594 27.4941 22.0598 26.8185V11.8037H25.792C25.7899 12.1235 25.8168 12.4429 25.8725 12.7577C26.0023 13.4595 26.272 14.127 26.665 14.7196C27.0581 15.3122 27.5662 15.8173 28.1585 16.2041C29.0015 16.7683 29.9897 17.0687 31 17.0679V20.8237Z" fill="#586A53"/>
</svg>
