<svg width="44" height="45" viewBox="0 0 44 45" fill="none" xmlns="http://www.w3.org/2000/svg">
<circle cx="22" cy="22.8037" r="22" fill="#F6E8EA"/>
<path d="M22.0027 16.6504C18.5974 16.6504 15.8508 19.3977 15.8508 22.8037C15.8508 26.2097 18.5974 28.957 22.0027 28.957C25.4079 28.957 28.1546 26.2097 28.1546 22.8037C28.1546 19.3977 25.4079 16.6504 22.0027 16.6504ZM22.0027 26.8042C19.8021 26.8042 18.0031 25.0101 18.0031 22.8037C18.0031 20.5973 19.7968 18.8033 22.0027 18.8033C24.2086 18.8033 26.0022 20.5973 26.0022 22.8037C26.0022 25.0101 24.2032 26.8042 22.0027 26.8042ZM29.8412 16.3987C29.8412 17.1967 29.1987 17.8339 28.4062 17.8339C27.6085 17.8339 26.9713 17.1913 26.9713 16.3987C26.9713 15.6061 27.6138 14.9635 28.4062 14.9635C29.1987 14.9635 29.8412 15.6061 29.8412 16.3987ZM33.9157 17.8554C33.8247 15.9328 33.3856 14.2298 31.9775 12.8267C30.5747 11.4236 28.8721 10.9845 26.9499 10.8881C24.9689 10.7756 19.0311 10.7756 17.0501 10.8881C15.1333 10.9791 13.4307 11.4182 12.0225 12.8213C10.6144 14.2244 10.1807 15.9274 10.0843 17.85C9.97189 19.8315 9.97189 25.7706 10.0843 27.7521C10.1753 29.6746 10.6144 31.3776 12.0225 32.7807C13.4307 34.1838 15.1279 34.623 17.0501 34.7194C19.0311 34.8318 24.9689 34.8318 26.9499 34.7194C28.8721 34.6283 30.5747 34.1892 31.9775 32.7807C33.3803 31.3776 33.8193 29.6746 33.9157 27.7521C34.0281 25.7706 34.0281 19.8368 33.9157 17.8554ZM31.3564 29.8781C30.9388 30.9278 30.1303 31.7364 29.0755 32.1595C27.496 32.7861 23.7481 32.6415 22.0027 32.6415C20.2572 32.6415 16.504 32.7807 14.9298 32.1595C13.8804 31.7418 13.0719 30.9331 12.649 29.8781C12.0225 28.2983 12.1671 24.5496 12.1671 22.8037C12.1671 21.0579 12.0279 17.3038 12.649 15.7293C13.0666 14.6796 13.8751 13.871 14.9298 13.4479C16.5093 12.8213 20.2572 12.9659 22.0027 12.9659C23.7481 12.9659 27.5014 12.8267 29.0755 13.4479C30.1249 13.8656 30.9334 14.6743 31.3564 15.7293C31.9828 17.3091 31.8383 21.0579 31.8383 22.8037C31.8383 24.5496 31.9828 28.3037 31.3564 29.8781Z" fill="#586A53"/>
</svg>
