<svg width="426" height="79" viewBox="0 0 426 79" fill="none" xmlns="http://www.w3.org/2000/svg">
<g clip-path="url(#clip0_26_205)">
<path d="M0 76.7039V3.00391H15.4V63.3039H42.1V76.7039H0Z" fill="#F6E8EA"/>
<path d="M55.1 76.7039V3.00391H70.5V76.7039H55.1Z" fill="#F6E8EA"/>
<path d="M85.2 39.9037C85.2 15.8037 97.9 0.803711 118.3 0.803711C134.5 0.803711 146 11.3037 148.5 28.4037L134.2 31.1037C132.4 20.5037 126.6 14.2037 118.3 14.2037C107.4 14.2037 100.6 23.9037 100.6 39.9037C100.6 55.7037 108.3 65.4037 120.5 65.4037C130.3 65.4037 137.7 57.9037 139.5 45.7037L154 48.1037C151.6 66.9037 138.5 78.8037 120.4 78.8037C98.6 78.8037 85.2 63.8037 85.2 39.9037Z" fill="#F6E8EA"/>
<path d="M162 27.3036C162 20.2036 167.1 15.2036 174.1 15.2036C181.1 15.2036 186.2 20.3036 186.2 27.3036C186.2 34.3036 181.1 39.3036 174.1 39.3036C167 39.3036 161.9 34.2036 162 27.3036ZM180.8 27.3036C180.8 23.4036 178 20.5036 174.1 20.5036C170.1 20.5036 167.3 23.4036 167.3 27.3036C167.3 31.2036 170.2 34.0036 174.1 34.0036C178 34.0036 180.8 31.2036 180.8 27.3036ZM175 60.3036L173.1 59.0036L204.3 14.7036L206.3 16.0036L175 60.3036ZM192.8 48.4036C192.9 41.3036 197.9 36.3036 204.9 36.3036C211.9 36.3036 217 41.4036 217 48.4036C217 55.4036 211.9 60.4036 204.9 60.4036C197.8 60.4036 192.8 55.4036 192.8 48.4036ZM211.6 48.4036C211.6 44.5036 208.8 41.6036 204.9 41.6036C200.9 41.6036 198.1 44.5036 198.1 48.4036C198.1 52.3036 200.9 55.1036 204.9 55.1036C208.8 55.1036 211.6 52.3036 211.6 48.4036Z" fill="#F6E8EA"/>
<path d="M264.6 67.8039L261.4 55.2039C260.3 50.8039 257.3 47.7039 253.3 47.7039H244.1V76.6039H228.7V3.00391H258.9C275.3 3.00391 285.6 11.8039 285.6 25.7039C285.6 35.0039 279.8 42.7039 269.8 45.1039V45.2039C273.6 46.9039 275.5 50.1039 276.5 54.3039L278.9 64.0039C279.4 66.4039 280.5 67.9039 282.3 67.9039C283.8 67.9039 285.3 66.9039 286.8 64.9039L290.6 72.5039C287.3 76.2039 282.3 78.4039 277.2 78.4039C270.4 78.4039 266.1 74.2039 264.6 67.8039ZM244.1 36.8039H257.6C265.2 36.8039 270.1 32.6039 270.1 25.9039C270.1 19.1039 265.1 14.8039 257.6 14.8039H244.1V36.8039Z" fill="#F6E8EA"/>
<path d="M302.4 76.7039V3.00391H321.5L347.8 58.2039H348V3.00391H362.5V76.7039H343.3L317 21.7039H316.8V76.7039H302.4Z" fill="#F6E8EA"/>
<path d="M379.4 76.7039V3.00391H424.2V15.6039H394.4V33.2039H420V44.4039H394.3V64.1039H425.2V76.6039H379.4V76.7039Z" fill="#F6E8EA"/>
</g>
<defs>
<clipPath id="clip0_26_205">
<rect width="425.2" height="78" fill="white" transform="translate(0 0.803711)"/>
</clipPath>
</defs>
</svg>
