<svg width="426" height="78" viewBox="0 0 426 78" fill="none" xmlns="http://www.w3.org/2000/svg">
<g clip-path="url(#clip0_1_44)">
<path d="M0 75.9V2.20001H15.4V62.5H42.1V75.9H0Z" fill="#FEFDFD"/>
<path d="M55.1 75.9V2.20001H70.5V75.9H55.1Z" fill="#FEFDFD"/>
<path d="M85.2 39.1C85.2 15 97.9 0 118.3 0C134.5 0 146 10.5 148.5 27.6L134.2 30.3C132.4 19.7 126.6 13.4 118.3 13.4C107.4 13.4 100.6 23.1 100.6 39.1C100.6 54.9 108.3 64.6 120.5 64.6C130.3 64.6 137.7 57.1 139.5 44.9L154 47.3C151.6 66.1 138.5 78 120.4 78C98.6 78 85.2 63 85.2 39.1Z" fill="#FEFDFD"/>
<path d="M162 26.5C162 19.4 167.1 14.4 174.1 14.4C181.1 14.4 186.2 19.5 186.2 26.5C186.2 33.5 181.1 38.5 174.1 38.5C167 38.5 161.9 33.4 162 26.5ZM180.8 26.5C180.8 22.6 178 19.7 174.1 19.7C170.1 19.7 167.3 22.6 167.3 26.5C167.3 30.4 170.2 33.2 174.1 33.2C178 33.2 180.8 30.4 180.8 26.5ZM175 59.5L173.1 58.2L204.3 13.9L206.3 15.2L175 59.5ZM192.8 47.6C192.9 40.5 197.9 35.5 204.9 35.5C211.9 35.5 217 40.6 217 47.6C217 54.6 211.9 59.6 204.9 59.6C197.8 59.6 192.8 54.6 192.8 47.6ZM211.6 47.6C211.6 43.7 208.8 40.8 204.9 40.8C200.9 40.8 198.1 43.7 198.1 47.6C198.1 51.5 200.9 54.3 204.9 54.3C208.8 54.3 211.6 51.5 211.6 47.6Z" fill="#FEFDFD"/>
<path d="M264.6 67L261.4 54.4C260.3 50 257.3 46.9 253.3 46.9H244.1V75.8H228.7V2.20001H258.9C275.3 2.20001 285.6 11 285.6 24.9C285.6 34.2 279.8 41.9 269.8 44.3V44.4C273.6 46.1 275.5 49.3 276.5 53.5L278.9 63.2C279.4 65.6 280.5 67.1 282.3 67.1C283.8 67.1 285.3 66.1 286.8 64.1L290.6 71.7C287.3 75.4 282.3 77.6 277.2 77.6C270.4 77.6 266.1 73.4 264.6 67ZM244.1 36H257.6C265.2 36 270.1 31.8 270.1 25.1C270.1 18.3 265.1 14 257.6 14H244.1V36Z" fill="#FEFDFD"/>
<path d="M302.4 75.9V2.20001H321.5L347.8 57.4H348V2.20001H362.5V75.9H343.3L317 20.9H316.8V75.9H302.4Z" fill="#FEFDFD"/>
<path d="M379.4 75.9V2.20001H424.2V14.8H394.4V32.4H420V43.6H394.3V63.3H425.2V75.8H379.4V75.9Z" fill="#FEFDFD"/>
</g>
<defs>
<clipPath id="clip0_1_44">
<rect width="425.2" height="78" fill="white"/>
</clipPath>
</defs>
</svg>
