<svg width="76" height="55" viewBox="0 0 76 55" fill="none" xmlns="http://www.w3.org/2000/svg">
<circle cx="7.5" cy="7.5" r="6.5" transform="matrix(-0.965926 0.258819 0.258819 0.965926 71.4889 23)" stroke="#DD622D" stroke-width="2"/>
<circle cx="9.18559" cy="31.938" r="6.5" transform="rotate(15 9.18559 31.938)" stroke="#DD622D" stroke-width="2"/>
<path d="M64.0908 25.3216C62.3041 18.6533 55.4498 14.696 48.7815 16.4828V16.4828C42.1132 18.2696 38.1559 25.1238 39.9427 31.7921L46.1086 54.8036L70.2567 48.3331L64.0908 25.3216Z" fill="#DD622D"/>
<path d="M11.2803 25.0741C13.0671 18.4058 19.9213 14.4485 26.5897 16.2352V16.2352C33.258 18.022 37.2153 24.8762 35.4285 31.5445L29.2626 54.556L5.11444 48.0856L11.2803 25.0741Z" fill="#DD622D"/>
<path d="M37 13C36.016 10.3896 32.9515 5.61205 28.5655 7.38515C23.0831 9.60154 33.4856 10.6358 37 13Z" fill="#DD622D"/>
<path d="M39 13C39.984 10.8247 43.0485 6.84337 47.4345 8.32096C52.9169 10.168 42.5144 11.0299 39 13Z" fill="#DD622D"/>
<path d="M38.0253 0.00490142C42.3834 0.14408 38.1929 10.5825 38.0253 11C37.6342 9.28347 35.8462 6.12876 34.5053 4.18025C33.5039 2.72512 33.6672 -0.134277 38.0253 0.00490142Z" fill="#DD622D"/>
</svg>
